<svg width="1256" height="485" viewBox="0 0 1256 485" fill="none" xmlns="http://www.w3.org/2000/svg">
<path d="M1231.78 473.766H255.114L239.577 461.562H8.40283V10.6543H883.811L905.776 27.9079H1231.78V473.766ZM256.185 471.662H1229.37V30.012H904.705L882.739 12.7584H11.0816V459.458H240.381L256.185 471.662Z" fill="#F3BA2F"/>
<path opacity="0.1" d="M258.864 466.402L243.327 454.198H17.7782V18.019H879.793L902.026 35.2726H1222.4V466.402H258.864Z" fill="#00130C"/>
<g opacity="0.1">
<path opacity="0.1" d="M1223.21 467.033H258.596L243.059 454.829H16.9745V17.3877H880.061L902.026 34.6413H1222.94V467.033H1223.21ZM259.132 465.981H1221.87V35.6933H901.49L879.525 18.4397H18.3139V453.567H243.327L259.132 465.981Z" fill="#00130C"/>
</g>
<path d="M1255.08 62.2046H1239.01V163.201H1255.08V62.2046Z" fill="#F3BA2F"/>
<path d="M1255.08 176.247H1239.01V184.874H1255.08V176.247Z" fill="#F3BA2F"/>
<path d="M1255.08 189.082H1239.01V197.709H1255.08V189.082Z" fill="#F3BA2F"/>
<path d="M1255.08 201.917H1239.01V210.544H1255.08V201.917Z" fill="#F3BA2F"/>
<path d="M1255.08 214.752H1239.01V223.378H1255.08V214.752Z" fill="#F3BA2F"/>
<path d="M246.542 484.076L231.273 472.083H1.70593V469.979H232.344L248.417 482.604L246.542 484.076Z" fill="#F3BA2F"/>
<path d="M1238.47 19.4915H912.741L890.24 1.81711L892.115 0.344238L913.813 17.3874H1238.47V19.4915Z" fill="#F3BA2F"/>
<path d="M19.1179 35.6934H0.366821V39.9016H19.1179V35.6934Z" fill="#F3BA2F"/>
<path d="M19.1178 266.092H0.366699V257.676H19.1178V266.092ZM19.1178 247.366H0.366699V238.949H19.1178V247.366ZM19.1178 228.429H0.366699V220.013H19.1178V228.429ZM19.1178 209.492H0.366699V201.076H19.1178V209.492ZM19.1178 190.766H0.366699V182.349H19.1178V190.766ZM19.1178 171.829H0.366699V163.412H19.1178V171.829ZM19.1178 152.892H0.366699V144.475H19.1178V152.892ZM19.1178 134.165H0.366699V125.749H19.1178V134.165ZM19.1178 115.229H0.366699V106.812H19.1178V115.229ZM19.1178 96.2916H0.366699V87.8752H19.1178V96.2916ZM19.1178 77.5652H0.366699V69.1488H19.1178V77.5652ZM19.1178 58.6283H0.366699V50.2119H19.1178V58.6283Z" fill="#F3BA2F"/>
<path d="M19.1178 276.612H0.366699V280.821H19.1178V276.612Z" fill="#F3BA2F"/>
</svg>
