<svg width="514" height="174" viewBox="0 0 514 174" fill="none" xmlns="http://www.w3.org/2000/svg">
<path d="M11 18.4669L21.5 6.56592H73.875H136.75H262.5H388.25L427 50.4763H498.5L514 67.7121V147.736L501.5 160.047L256.25 160.868H21.5L11 148.967V18.4669Z" fill="#00151E"/>
<g opacity="0.1">
<path opacity="0.1" d="M24.8233 153.239L17.308 145.329V22.7385L24.8233 14.5823H383.507L423.817 58.3294H495.326L506.029 69.6988V145.329L498.514 153.239H24.8233Z" fill="#F3BA2F"/>
<g opacity="0.1">
<path opacity="0.1" d="M498.742 153.98H24.5956L16.8525 145.577V22.2442L24.5956 13.8408H383.963L424.044 57.3408H495.553L506.485 69.2044V145.329L498.742 153.98ZM25.051 152.744H498.514L505.574 145.082V69.9459L495.326 58.8238H423.589L383.28 15.3238H25.051L17.9912 22.9857V145.082L25.051 152.744Z" fill="#F3BA2F"/>
</g>
</g>
<path d="M165.336 169.798H40.3092V174H165.336V169.798Z" fill="#F3BA2F"/>
<path d="M98.3819 7.16772H96.1045V15.8183H98.3819V7.16772Z" fill="#F3BA2F"/>
<path d="M98.3819 152.003H96.1045V160.653H98.3819V152.003Z" fill="#F3BA2F"/>
<path d="M419.262 14.5825H301.067V21.9973H419.262V14.5825Z" fill="#F3BA2F"/>
<path d="M0 33.6137V31.1421L17.5357 38.5569V41.0285L0 33.6137ZM17.5357 49.679V47.2074L0 39.5455V42.0171L17.5357 49.679ZM17.5357 58.0824V55.6108L0 48.1961V50.6677L17.5357 58.0824ZM17.5357 66.733V64.2614L0 56.8466V59.3182L17.5357 66.733Z" fill="#F3BA2F"/>
<path d="M501.93 161.889H21.4072L9.33716 148.79V19.0313L21.4072 5.93188H386.923L427.005 49.4319H498.742L514 65.9916V148.79L501.93 161.889ZM22.3181 159.418H501.019L511.723 147.801V67.2273L497.831 52.1506H426.322L386.012 8.40348H22.3181L11.6145 20.02V147.801L22.3181 159.418Z" fill="#F3BA2F"/>
<path d="M506.712 131.241H502.158V129.511H506.712V131.241ZM506.712 124.568H502.158V122.838H506.712V124.568ZM506.712 117.895H502.158V116.165H506.712V117.895ZM506.712 111.222H502.158V109.491H506.712V111.222ZM506.712 104.548H502.158V102.818H506.712V104.548ZM506.712 97.875H502.158V96.1448H506.712V97.875ZM506.712 91.2017H502.158V89.4715H506.712V91.2017ZM506.712 84.5284H502.158V82.7983H506.712V84.5284ZM506.712 77.8551H502.158V76.125H506.712V77.8551ZM506.712 71.1818H502.158V69.4517H506.712V71.1818Z" fill="#F3BA2F"/>
<path d="M172.396 14.3352H169.663V0H172.396V14.3352ZM177.862 0H175.129V14.3352H177.862V0ZM183.327 0H180.595V14.3352H183.327V0ZM188.793 0H186.06V14.3352H188.793V0ZM194.259 0H191.298V14.3352H194.031V0H194.259ZM199.724 0H196.992V14.3352H199.724V0ZM205.19 0H202.457V14.3352H205.19V0ZM210.428 0H207.695V14.3352H210.428V0ZM215.894 0H213.161V14.3352H215.894V0ZM221.359 0H218.627V14.3352H221.359V0ZM226.825 0H224.092V14.3352H226.825V0ZM232.291 0H229.558V14.3352H232.291V0ZM237.756 0H235.024V14.3352H237.756V0ZM243.222 0H240.489V14.3352H243.222V0ZM248.688 0H245.955V14.3352H248.688V0ZM254.153 0H251.421V14.3352H254.153V0ZM259.619 0H256.886V14.3352H259.619V0ZM265.085 0H262.352V14.3352H265.085V0ZM270.55 0H267.818V14.3352H270.55V0ZM276.016 0H273.283V14.3352H276.016V0ZM281.482 0H278.749V14.3352H281.482V0ZM286.947 0H284.215V14.3352H286.947V0ZM292.413 0H289.68V14.3352H292.413V0Z" fill="#F3BA2F"/>
<path d="M278.521 167.327H136.414V169.798H278.521V167.327Z" fill="#F3BA2F"/>
</svg>
